<?xml version="1.0" standalone="no"?>
<!DOCTYPE svg PUBLIC "-//W3C//DTD SVG 20010904//EN"
 "http://www.w3.org/TR/2001/REC-SVG-20010904/DTD/svg10.dtd">
<svg version="1.0" xmlns="http://www.w3.org/2000/svg"
 width="2084.000000pt" height="2084.000000pt" viewBox="0 0 2084.000000 2084.000000"
 preserveAspectRatio="xMidYMid meet">
<metadata>
Created by potrace 1.14, written by Peter Selinger 2001-2017
</metadata>
<g transform="translate(0.000000,2084.000000) scale(0.100000,-0.100000)"
fill="#000000" stroke="none">
<path d="M1861 20829 c-135 -14 -316 -55 -446 -99 -777 -266 -1315 -942 -1404
-1762 -15 -136 -15 -16949 -1 -17086 38 -349 145 -650 334 -937 339 -516 877
-848 1496 -925 58 -7 2719 -10 8577 -10 9393 0 8582 -6 8856 64 373 96 701
287 972 567 258 267 430 573 521 926 70 274 64 -537 64 8856 0 5858 -3 8519
-10 8577 -77 619 -409 1157 -925 1496 -288 190 -586 296 -937 334 -122 13
-16971 12 -17097 -1z m8744 -1770 c122 -25 248 -66 476 -157 617 -247 1349
-648 1919 -1051 263 -186 341 -239 785 -529 630 -412 862 -548 1225 -717 240
-112 359 -159 505 -200 175 -49 229 -94 255 -209 23 -105 -25 -217 -115 -267
-87 -49 -372 -88 -682 -94 -234 -5 -261 -11 -322 -68 -18 -18 -44 -54 -57 -82
l-24 -50 0 -1724 c0 -1303 3 -1733 12 -1763 15 -51 85 -129 135 -151 33 -15
1558 -272 1728 -292 76 -9 121 -28 163 -68 55 -52 76 -102 76 -182 1 -91 -13
-116 -130 -236 -53 -54 -102 -115 -114 -140 -19 -44 -20 -64 -20 -2143 0
-1589 3 -2108 12 -2138 7 -25 39 -70 85 -121 100 -111 120 -176 88 -285 -13
-42 -34 -71 -107 -150 l-91 -97 -588 -1185 c-323 -652 -603 -1202 -620 -1224
-20 -23 -56 -50 -93 -67 -34 -15 -1087 -450 -2341 -965 l-2280 -938 -70 0
c-70 0 -78 4 -2396 958 -1613 664 -2338 967 -2363 988 -31 26 -126 210 -637
1236 l-600 1206 -79 82 c-93 95 -122 150 -122 233 0 77 21 121 96 205 35 39
72 87 82 106 18 34 19 92 19 2140 0 1767 -2 2111 -14 2144 -9 26 -50 77 -118
147 -57 60 -110 124 -118 143 -22 52 -19 152 6 206 47 103 88 125 291 155 90
13 489 78 888 144 535 89 738 127 773 143 54 25 91 63 118 123 18 38 19 118
19 1778 0 1538 -2 1742 -15 1774 -25 59 -59 96 -116 128 -52 29 -58 30 -168
27 -219 -5 -587 33 -729 73 -63 19 -127 73 -153 130 -12 25 -19 64 -19 106 0
123 68 212 189 244 298 80 729 276 1147 521 218 127 1139 731 1389 910 408
292 801 527 1320 789 654 330 1129 498 1345 478 30 -2 100 -14 155 -24z"/>
<path d="M9510 15334 c-198 -52 -350 -194 -422 -394 l-23 -65 -3 -841 c-2
-724 -1 -852 13 -915 45 -218 203 -389 420 -456 56 -17 114 -18 925 -18 l865
0 80 28 c182 63 306 187 379 377 21 54 21 66 24 917 2 742 1 871 -13 928 -49
211 -227 390 -437 440 -92 22 -1725 21 -1808 -1z"/>
</g>
</svg>
